<svg width="359" height="63" viewBox="0 0 359 63" fill="none" xmlns="http://www.w3.org/2000/svg">
<path d="M66.6484 37.0605C66.4368 38.7533 66.3311 40.1042 66.3311 41.1133C66.3311 42.1061 66.4531 43.0257 66.6973 43.8721C66.9414 44.7184 67.2913 45.4508 67.7471 46.0693C68.7236 47.3877 69.9606 48.0469 71.458 48.0469C74.3226 48.0469 75.7549 46.4681 75.7549 43.3105C75.7549 40.7715 74.2819 38.0778 71.3359 35.2295L68.7969 32.7637C66.5671 30.6152 65.0452 28.89 64.2314 27.5879C62.6201 25.0163 61.8145 22.4609 61.8145 19.9219C61.8145 17.8548 62.4818 16.1214 63.8164 14.7217C65.4277 13.0127 67.7471 12.1582 70.7744 12.1582C71.9626 12.1582 72.8577 12.2152 73.46 12.3291C74.583 12.5407 75.3317 12.6465 75.7061 12.6465C76.6501 12.6465 77.3825 12.3535 77.9033 11.7676C78.0986 11.556 78.3102 11.2793 78.5381 10.9375C79.7262 11.6048 80.3203 14.0544 80.3203 18.2861C80.3203 20.988 80.0518 22.9818 79.5146 24.2676C79.3356 24.707 79.1322 24.9837 78.9043 25.0977C78.6439 22.64 77.8464 20.4427 76.5117 18.5059C74.9492 16.2272 73.1426 15.0879 71.0918 15.0879C69.334 15.0879 68.2516 15.8936 67.8447 17.5049C67.7308 17.9606 67.6738 18.5303 67.6738 19.2139C67.6738 19.8812 67.8773 20.6462 68.2842 21.5088C68.6911 22.3714 69.2201 23.234 69.8711 24.0967C70.5384 24.943 71.3034 25.7975 72.166 26.6602C74.7702 29.3294 76.4954 31.1361 77.3418 32.0801C78.2044 33.0241 78.9694 34.0007 79.6367 35.0098C81.1016 37.2721 81.834 39.4613 81.834 41.5771C81.834 44.1325 80.8411 46.2484 78.8555 47.9248C76.8047 49.6338 74.168 50.4883 70.9453 50.4883C68.276 50.4883 65.9811 49.821 64.0605 48.4863C61.9447 47.0215 60.8867 45.0846 60.8867 42.6758C61.5215 40.4134 62.9049 38.7533 65.0371 37.6953C65.6068 37.4023 66.1439 37.1908 66.6484 37.0605ZM103.294 50C103.506 48.9746 103.611 48.1608 103.611 47.5586C103.611 46.9401 103.595 46.4762 103.562 46.167C103.546 45.8577 103.514 45.5322 103.465 45.1904C103.432 44.8324 103.383 44.4417 103.318 44.0186C103.27 43.5791 103.221 43.0745 103.172 42.5049C102.798 38.6149 101.471 35.4167 99.1924 32.9102C98.1833 31.8034 97.0928 30.9652 95.9209 30.3955C94.749 29.8096 93.7806 29.5166 93.0156 29.5166C92.2669 29.5166 91.6891 29.5654 91.2822 29.6631C90.3708 32.3975 89.915 35.2539 89.915 38.2324C89.915 40.8691 90.0534 42.8385 90.3301 44.1406C90.7695 46.0938 91.445 48.055 92.3564 50.0244H85.0566C85.4473 49.0479 85.6426 46.9971 85.6426 43.8721C85.6426 40.7308 85.8786 37.8011 86.3506 35.083C86.8226 32.3486 87.4329 29.9154 88.1816 27.7832C88.9466 25.651 89.793 23.7874 90.7207 22.1924C91.6647 20.5811 92.6006 19.1813 93.5283 17.9932C94.4723 16.7887 95.3594 15.7633 96.1895 14.917C97.0195 14.0544 97.7113 13.2975 98.2646 12.6465H105.955C105.255 13.444 104.905 14.5589 104.905 15.9912C104.905 16.6423 105.011 17.7083 105.223 19.1895L105.833 23.6328C108.063 38.9974 110.057 47.7865 111.814 50H103.294ZM92.2832 27.0752C92.918 26.8311 93.5853 26.709 94.2852 26.709C94.985 26.709 95.6117 26.7578 96.165 26.8555C96.7347 26.9531 97.2962 27.1159 97.8496 27.3438C99.0378 27.7995 100.031 28.5238 100.828 29.5166C100.031 25.3337 99.5423 22.7783 99.3633 21.8506L98.5088 17.5781L97.1172 19.2383C95.1641 21.582 93.5527 24.1943 92.2832 27.0752ZM120.311 12.6465C120.034 13.5417 119.896 14.388 119.896 15.1855C119.896 16.5365 120.132 18.4896 120.604 21.0449C122.589 31.0221 123.745 36.7839 124.07 38.3301C124.754 41.5202 125.169 43.457 125.315 44.1406C125.478 44.8079 125.625 45.4508 125.755 46.0693C128.782 42.4723 130.874 37.5651 132.029 31.3477C132.452 29.069 132.664 26.9206 132.664 24.9023C132.664 22.8841 132.623 21.3216 132.542 20.2148C132.461 19.1081 132.322 18.099 132.127 17.1875C131.736 15.3646 131.118 13.8428 130.271 12.6221H138.792C138.45 13.5986 138.271 14.5752 138.255 15.5518C138.239 16.5283 138.206 18.0176 138.157 20.0195C138.108 22.0052 137.856 24.3734 137.4 27.124C136.945 29.8747 136.375 32.3324 135.691 34.4971C135.008 36.6618 134.251 38.5661 133.421 40.21C132.591 41.8538 131.761 43.2943 130.931 44.5312C130.101 45.7682 129.311 46.8262 128.562 47.7051L126.658 50H118.968C119.212 49.3815 119.334 48.7793 119.334 48.1934C119.334 47.2331 119.204 45.8252 118.943 43.9697C116.16 25.3825 113.776 14.9414 111.79 12.6465H120.311ZM155.54 48.0469C158.665 48.0469 160.683 44.2383 161.595 36.6211C161.904 34.0495 162.059 31.0221 162.059 27.5391C162.059 18.9128 159.869 14.5996 155.491 14.5996C151.113 14.5996 148.924 18.9128 148.924 27.5391C148.924 37.7116 150.234 44.1325 152.854 46.8018C153.668 47.6318 154.563 48.0469 155.54 48.0469ZM155.491 50.4883C151.162 50.4883 147.898 48.4538 145.701 44.3848C143.585 40.4622 142.527 34.847 142.527 27.5391C142.527 19.9382 144.863 15.153 149.534 13.1836C151.178 12.5 153.164 12.1582 155.491 12.1582C162.164 12.1582 166.242 15.1204 167.723 21.0449C168.211 22.9492 168.455 25.3988 168.455 28.3936C168.455 31.3883 168.195 34.3099 167.674 37.1582C167.153 39.9902 166.355 42.3991 165.281 44.3848C163.084 48.4538 159.821 50.4883 155.491 50.4883ZM184.788 26.8066C182.9 26.8066 181.956 27.9215 181.956 30.1514C181.956 39.3962 182.111 44.8405 182.42 46.4844C182.599 47.4772 182.827 48.2178 183.104 48.7061L183.836 50H175.169C175.69 48.763 175.991 47.7295 176.072 46.8994C176.17 46.0693 176.251 45.1823 176.316 44.2383C176.447 42.3177 176.512 39.738 176.512 36.499C176.512 32.5765 176.447 28.9958 176.316 25.7568L176.048 19.043C175.983 17.3503 175.836 16.1702 175.608 15.5029C175.25 14.445 174.664 13.4928 173.851 12.6465H186.766C190.704 12.6465 193.553 13.0371 195.311 13.8184C197.166 14.6322 198.094 16.0238 198.094 17.9932C198.094 19.7184 197.451 21.3379 196.165 22.8516C194.961 24.2513 193.382 25.3662 191.429 26.1963C191.673 32.4463 193.634 38.444 197.312 44.1895C198.891 46.6797 200.503 48.6165 202.146 50H192.991C191.396 47.819 189.923 43.4001 188.572 36.7432C188.117 34.432 187.815 32.5114 187.669 30.9814C187.539 29.4515 187.425 28.5319 187.327 28.2227C187.246 27.8971 187.107 27.6367 186.912 27.4414C186.521 27.0182 185.813 26.8066 184.788 26.8066ZM190.403 22.4609C190.859 21.9727 191.176 21.4518 191.355 20.8984C191.551 20.3451 191.648 19.8161 191.648 19.3115C191.648 18.7907 191.575 18.278 191.429 17.7734C191.299 17.2526 191.03 16.7969 190.623 16.4062C189.728 15.5273 188.165 15.0879 185.936 15.0879C185.105 15.0879 184.43 15.1204 183.909 15.1855C183.405 15.2507 183.006 15.4297 182.713 15.7227C182.208 16.2109 181.956 17.4561 181.956 19.458C181.956 21.2158 182.143 22.3389 182.518 22.8271C183.185 23.6898 184.194 24.1211 185.545 24.1211C186.896 24.1211 187.929 23.9665 188.646 23.6572C189.378 23.3317 189.964 22.9329 190.403 22.4609ZM208.763 40.6006L208.787 35.498V32.7148C208.787 31.25 208.185 29.1667 206.98 26.4648C206.053 24.4303 205.426 23.0876 205.101 22.4365L204.295 20.8252C202.195 16.4307 200.356 13.7044 198.777 12.6465H208.616C208.502 12.972 208.445 13.387 208.445 13.8916C208.445 14.3962 208.486 14.9333 208.567 15.5029C208.649 16.0563 208.755 16.626 208.885 17.2119C209.129 18.335 209.446 19.3685 209.837 20.3125L211.009 23.1445C211.416 24.0885 211.92 25.0488 212.522 26.0254C213.287 24.8698 213.898 23.7386 214.354 22.6318L215.281 20.3369C216.209 17.9769 216.673 15.7308 216.673 13.5986C216.673 13.2406 216.648 12.9232 216.6 12.6465H223.313C222.418 13.5905 221.482 14.9658 220.506 16.7725C219.529 18.5791 218.846 19.8893 218.455 20.7031L217.21 23.4131C215.517 27.1566 214.671 30.1514 214.671 32.3975V43.5547C214.671 45.2148 214.866 46.4111 215.257 47.1436C215.647 47.876 216.062 48.4456 216.502 48.8525C216.941 49.2594 217.47 49.6419 218.089 50H205.613C207.713 48.9258 208.763 46.9645 208.763 44.1162V40.6006ZM263.67 17.9932C263.67 20.7275 261.668 22.9736 257.664 24.7314C260.984 25.3499 263.149 26.8555 264.158 29.248C264.484 30.0456 264.646 31.1035 264.646 32.4219C264.646 33.724 264.451 35.14 264.061 36.6699C263.686 38.1836 263.084 39.6159 262.254 40.9668C261.44 42.3014 260.398 43.5221 259.129 44.6289C257.859 45.7357 256.338 46.6878 254.563 47.4854C250.836 49.1618 246.23 50 240.745 50C241.266 48.763 241.567 47.7295 241.648 46.8994C241.746 46.0693 241.827 45.1823 241.893 44.2383C242.023 42.3177 242.088 39.738 242.088 36.499C242.088 32.5765 242.023 28.9958 241.893 25.7568L241.624 19.043C241.559 17.3503 241.412 16.1702 241.185 15.5029C240.826 14.445 240.241 13.4928 239.427 12.6465H252.342C256.281 12.6465 259.129 13.0371 260.887 13.8184C262.742 14.6322 263.67 16.0238 263.67 17.9932ZM247.776 30.6396L247.801 43.042C247.801 43.9697 247.898 44.6696 248.094 45.1416C248.305 45.6136 248.72 45.8496 249.339 45.8496C251.845 45.8496 253.937 44.6615 255.613 42.2852C257.339 39.8438 258.201 36.6699 258.201 32.7637C258.201 30.8268 257.77 29.3864 256.907 28.4424C255.768 27.1891 253.725 26.5625 250.779 26.5625C250.112 26.5625 249.583 26.5951 249.192 26.6602C248.802 26.709 248.501 26.8636 248.289 27.124C247.947 27.5472 247.776 28.7191 247.776 30.6396ZM255.833 22.168C256.338 21.6797 256.696 21.1589 256.907 20.6055C257.119 20.0521 257.225 19.5394 257.225 19.0674C257.225 18.5791 257.151 18.0908 257.005 17.6025C256.875 17.1143 256.606 16.6829 256.199 16.3086C255.288 15.4948 253.725 15.0879 251.512 15.0879C249.835 15.0879 248.834 15.2588 248.509 15.6006C248.183 15.9261 247.98 16.3656 247.898 16.9189C247.817 17.4723 247.776 18.1885 247.776 19.0674C247.776 19.93 247.801 20.6543 247.85 21.2402C247.898 21.8099 248.029 22.29 248.24 22.6807C248.647 23.4782 249.477 23.877 250.73 23.877C252 23.877 253.042 23.7142 253.855 23.3887C254.686 23.0632 255.345 22.6562 255.833 22.168ZM278.538 12.6465C277.936 14.1602 277.586 15.682 277.488 17.2119C277.391 18.7256 277.317 20.0277 277.269 21.1182C277.22 22.2087 277.179 23.3398 277.146 24.5117C277.098 27.2461 277.073 29.7363 277.073 31.9824C277.073 41.1947 277.415 46.8424 278.099 48.9258C278.213 49.2839 278.359 49.6419 278.538 50H270.115C270.62 48.8932 270.921 47.8923 271.019 46.9971C271.116 46.1019 271.206 45.0358 271.287 43.7988C271.482 41.2435 271.58 38.2975 271.58 34.9609C271.58 31.6243 271.572 29.3457 271.556 28.125C271.539 26.888 271.515 25.6836 271.482 24.5117C271.368 18.7988 271.027 15.1693 270.457 13.623L270.115 12.6465H278.538ZM283.299 23.6328C282.908 22.6888 282.713 21.5739 282.713 20.2881C282.713 19.0023 282.762 17.9525 282.859 17.1387C282.957 16.3086 283.087 15.5599 283.25 14.8926C283.641 13.3952 284.121 12.6465 284.69 12.6465H306.199C307.143 12.6465 307.778 14.0462 308.104 16.8457C308.185 17.627 308.226 18.4326 308.226 19.2627C308.226 21.2158 308.014 22.6725 307.591 23.6328C306.191 19.2871 304.376 16.5039 302.146 15.2832C301.642 14.9902 301.146 14.8438 300.657 14.8438C300.169 14.8438 299.786 14.974 299.51 15.2344C299.233 15.4785 299.005 15.8773 298.826 16.4307C298.533 17.4072 298.387 18.5791 298.387 19.9463V29.1016L298.411 36.5723V43.6523C298.411 45.2474 298.615 46.4274 299.021 47.1924C299.445 47.9411 299.868 48.5107 300.291 48.9014C300.73 49.292 301.243 49.6582 301.829 50H289.354C290.525 49.0397 291.274 48.2503 291.6 47.6318C292.202 46.5088 292.503 45.1823 292.503 43.6523V21.6553C292.503 19.0999 292.405 17.4561 292.21 16.7236C292.015 15.9749 291.779 15.4785 291.502 15.2344C291.225 14.974 290.843 14.8438 290.354 14.8438C289.866 14.8438 289.37 14.9902 288.865 15.2832C288.361 15.5599 287.864 15.9342 287.376 16.4062C286.904 16.862 286.448 17.3991 286.009 18.0176C285.586 18.6198 285.195 19.2464 284.837 19.8975C284.137 21.1833 283.624 22.4284 283.299 23.6328ZM330.857 40.9668C331.297 41.569 331.517 42.4398 331.517 43.5791C331.517 44.7184 331.468 45.6299 331.37 46.3135C331.272 46.9808 331.118 47.5911 330.906 48.1445C330.418 49.3815 329.775 50 328.978 50H309.202C310.455 49.3327 311.285 48.6898 311.692 48.0713C312.457 46.9157 312.84 45.4508 312.84 43.6768C312.824 39.3311 312.815 35.4004 312.815 31.8848V19.043C312.815 16.6178 312.433 14.86 311.668 13.7695C311.375 13.3789 311.025 13.0046 310.618 12.6465H328.978C330.084 13.0371 330.841 14.4043 331.248 16.748C331.362 17.3991 331.419 18.0339 331.419 18.6523C331.419 19.9219 331.232 20.931 330.857 21.6797L329.539 19.043C328.66 17.3177 327.399 16.1621 325.755 15.5762C324.843 15.2507 323.818 15.0879 322.679 15.0879C321.539 15.0879 320.726 15.1286 320.237 15.21C319.749 15.2751 319.375 15.446 319.114 15.7227C318.691 16.1947 318.479 17.098 318.479 18.4326C318.479 19.751 318.512 20.6706 318.577 21.1914C318.642 21.696 318.797 22.111 319.041 22.4365C319.546 23.0713 320.612 23.3887 322.239 23.3887H329.905C329.531 24.3327 329.148 25 328.758 25.3906C327.977 26.1719 326.919 26.5625 325.584 26.5625C325.063 26.5625 324.567 26.5055 324.095 26.3916C323.216 26.18 322.443 26.0742 321.775 26.0742C321.108 26.0742 320.555 26.1393 320.115 26.2695C319.692 26.3835 319.358 26.5706 319.114 26.8311C318.691 27.2868 318.479 28.1087 318.479 29.2969V40.9424C318.479 44.0023 318.65 45.8171 318.992 46.3867C319.334 46.9564 319.749 47.2982 320.237 47.4121C320.726 47.5098 321.539 47.5586 322.679 47.5586C323.818 47.5586 324.852 47.3958 325.779 47.0703C326.707 46.7448 327.48 46.2891 328.099 45.7031C328.733 45.1172 329.254 44.4255 329.661 43.6279C330.068 42.8141 330.467 41.9271 330.857 40.9668ZM341.111 37.0605C340.9 38.7533 340.794 40.1042 340.794 41.1133C340.794 42.1061 340.916 43.0257 341.16 43.8721C341.404 44.7184 341.754 45.4508 342.21 46.0693C343.187 47.3877 344.424 48.0469 345.921 48.0469C348.785 48.0469 350.218 46.4681 350.218 43.3105C350.218 40.7715 348.745 38.0778 345.799 35.2295L343.26 32.7637C341.03 30.6152 339.508 28.89 338.694 27.5879C337.083 25.0163 336.277 22.4609 336.277 19.9219C336.277 17.8548 336.945 16.1214 338.279 14.7217C339.891 13.0127 342.21 12.1582 345.237 12.1582C346.425 12.1582 347.321 12.2152 347.923 12.3291C349.046 12.5407 349.795 12.6465 350.169 12.6465C351.113 12.6465 351.845 12.3535 352.366 11.7676C352.562 11.556 352.773 11.2793 353.001 10.9375C354.189 11.6048 354.783 14.0544 354.783 18.2861C354.783 20.988 354.515 22.9818 353.978 24.2676C353.799 24.707 353.595 24.9837 353.367 25.0977C353.107 22.64 352.309 20.4427 350.975 18.5059C349.412 16.2272 347.605 15.0879 345.555 15.0879C343.797 15.0879 342.715 15.8936 342.308 17.5049C342.194 17.9606 342.137 18.5303 342.137 19.2139C342.137 19.8812 342.34 20.6462 342.747 21.5088C343.154 22.3714 343.683 23.234 344.334 24.0967C345.001 24.943 345.766 25.7975 346.629 26.6602C349.233 29.3294 350.958 31.1361 351.805 32.0801C352.667 33.0241 353.432 34.0007 354.1 35.0098C355.564 37.2721 356.297 39.4613 356.297 41.5771C356.297 44.1325 355.304 46.2484 353.318 47.9248C351.268 49.6338 348.631 50.4883 345.408 50.4883C342.739 50.4883 340.444 49.821 338.523 48.4863C336.408 47.0215 335.35 45.0846 335.35 42.6758C335.984 40.4134 337.368 38.7533 339.5 37.6953C340.07 37.4023 340.607 37.1908 341.111 37.0605Z" fill="#FAF7EE"/>
<path d="M13.5 9.5C12.6 9.5 12 10.4 12 11V18.5H9V11C9 10.1 8.4 9.5 7.5 9.5C6.6 9.5 6 10.4 6 11V18.5H3V11C3 10.1 2.4 9.5 1.5 9.5C0.6 9.5 0 10.4 0 11V20.9C0 23.6 2.1 25.7 4.5 26V47C4.5 48.8 5.7 50 7.5 50C9.3 50 10.5 48.8 10.5 47V26C12.9 25.7 15 23.6 15 20.9V11C15 10.4 14.4 9.5 13.5 9.5ZM19.5 11V29H22.5V47C22.5 48.8 23.7 50 25.5 50C27.3 50 28.5 48.8 28.5 47V2C23.4 2 19.5 5.9 19.5 11ZM40.5 8C36.3 8 33 12.5 33 17.9C32.7 21.5 34.5 24.8 37.5 26.9V47C37.5 48.8 38.7 50 40.5 50C42.3 50 43.5 48.8 43.5 47V26.9C46.5 24.8 48.3 21.5 48 17.9C48 12.5 44.7 8 40.5 8Z" fill="#FAF7EE"/>
</svg>
